<mxfile host="Electron" agent="Mozilla/5.0 (Windows NT 10.0; Win64; x64) AppleWebKit/537.36 (KHTML, like Gecko) draw.io/24.7.17 Chrome/128.0.6613.36 Electron/32.0.1 Safari/537.36" version="24.7.17">
  <diagram name="PÃ¡gina-1" id="jWgQ58ZbzdGg9xgYxxIW">
    <mxGraphModel dx="1692" dy="1685" grid="1" gridSize="10" guides="1" tooltips="1" connect="1" arrows="1" fold="1" page="1" pageScale="1" pageWidth="827" pageHeight="1169" math="0" shadow="0">
      <root>
        <mxCell id="0" />
        <mxCell id="1" parent="0" />
        <mxCell id="P2I478FamtUAUtdz1vfe-78" value="" style="edgeStyle=orthogonalEdgeStyle;rounded=0;orthogonalLoop=1;jettySize=auto;html=1;" parent="1" source="qZTf007Mv5Fw0Ax3Y-SA-5" target="P2I478FamtUAUtdz1vfe-20" edge="1">
          <mxGeometry relative="1" as="geometry" />
        </mxCell>
        <mxCell id="P2I478FamtUAUtdz1vfe-2" value="people" style="rounded=0;whiteSpace=wrap;html=1;" parent="1" vertex="1">
          <mxGeometry x="130" y="120" width="50" height="30" as="geometry" />
        </mxCell>
        <mxCell id="P2I478FamtUAUtdz1vfe-3" value="identificationType" style="rounded=0;whiteSpace=wrap;html=1;" parent="1" vertex="1">
          <mxGeometry x="-70" y="340" width="100" height="30" as="geometry" />
        </mxCell>
        <mxCell id="P2I478FamtUAUtdz1vfe-104" value="" style="edgeStyle=orthogonalEdgeStyle;rounded=0;orthogonalLoop=1;jettySize=auto;html=1;" parent="1" source="P2I478FamtUAUtdz1vfe-4" target="P2I478FamtUAUtdz1vfe-93" edge="1">
          <mxGeometry relative="1" as="geometry" />
        </mxCell>
        <mxCell id="P2I478FamtUAUtdz1vfe-4" value="Producto" style="rounded=0;whiteSpace=wrap;html=1;" parent="1" vertex="1">
          <mxGeometry x="414" y="440" width="120" height="60" as="geometry" />
        </mxCell>
        <mxCell id="P2I478FamtUAUtdz1vfe-77" value="" style="edgeStyle=orthogonalEdgeStyle;rounded=0;orthogonalLoop=1;jettySize=auto;html=1;" parent="1" source="P2I478FamtUAUtdz1vfe-5" target="P2I478FamtUAUtdz1vfe-68" edge="1">
          <mxGeometry relative="1" as="geometry" />
        </mxCell>
        <mxCell id="P2I478FamtUAUtdz1vfe-103" value="" style="edgeStyle=orthogonalEdgeStyle;rounded=0;orthogonalLoop=1;jettySize=auto;html=1;" parent="1" source="P2I478FamtUAUtdz1vfe-5" target="P2I478FamtUAUtdz1vfe-92" edge="1">
          <mxGeometry relative="1" as="geometry" />
        </mxCell>
        <mxCell id="P2I478FamtUAUtdz1vfe-5" value="user" style="rounded=0;whiteSpace=wrap;html=1;" parent="1" vertex="1">
          <mxGeometry x="350" y="120" width="50" height="20" as="geometry" />
        </mxCell>
        <mxCell id="P2I478FamtUAUtdz1vfe-64" value="" style="edgeStyle=orthogonalEdgeStyle;rounded=0;orthogonalLoop=1;jettySize=auto;html=1;" parent="1" source="P2I478FamtUAUtdz1vfe-6" target="P2I478FamtUAUtdz1vfe-3" edge="1">
          <mxGeometry relative="1" as="geometry" />
        </mxCell>
        <mxCell id="P2I478FamtUAUtdz1vfe-6" value="&lt;u&gt;id&lt;/u&gt;" style="ellipse;whiteSpace=wrap;html=1;" parent="1" vertex="1">
          <mxGeometry x="-10" y="395" width="50" height="30" as="geometry" />
        </mxCell>
        <mxCell id="P2I478FamtUAUtdz1vfe-65" value="" style="edgeStyle=orthogonalEdgeStyle;rounded=0;orthogonalLoop=1;jettySize=auto;html=1;" parent="1" source="P2I478FamtUAUtdz1vfe-7" target="P2I478FamtUAUtdz1vfe-3" edge="1">
          <mxGeometry relative="1" as="geometry" />
        </mxCell>
        <mxCell id="P2I478FamtUAUtdz1vfe-7" value="typeName" style="ellipse;whiteSpace=wrap;html=1;" parent="1" vertex="1">
          <mxGeometry x="-75" y="400" width="70" height="20" as="geometry" />
        </mxCell>
        <mxCell id="P2I478FamtUAUtdz1vfe-57" value="" style="edgeStyle=orthogonalEdgeStyle;rounded=0;orthogonalLoop=1;jettySize=auto;html=1;entryX=0.125;entryY=1;entryDx=0;entryDy=0;entryPerimeter=0;" parent="1" source="P2I478FamtUAUtdz1vfe-13" target="P2I478FamtUAUtdz1vfe-2" edge="1">
          <mxGeometry relative="1" as="geometry">
            <mxPoint x="140" y="190" as="targetPoint" />
          </mxGeometry>
        </mxCell>
        <mxCell id="P2I478FamtUAUtdz1vfe-13" value="idAddress" style="ellipse;whiteSpace=wrap;html=1;" parent="1" vertex="1">
          <mxGeometry x="2.5" y="220" width="80" height="30" as="geometry" />
        </mxCell>
        <mxCell id="P2I478FamtUAUtdz1vfe-60" value="" style="edgeStyle=orthogonalEdgeStyle;rounded=0;orthogonalLoop=1;jettySize=auto;html=1;entryX=-0.008;entryY=0.867;entryDx=0;entryDy=0;entryPerimeter=0;" parent="1" source="P2I478FamtUAUtdz1vfe-14" target="P2I478FamtUAUtdz1vfe-2" edge="1">
          <mxGeometry relative="1" as="geometry" />
        </mxCell>
        <mxCell id="P2I478FamtUAUtdz1vfe-14" value="email" style="ellipse;whiteSpace=wrap;html=1;" parent="1" vertex="1">
          <mxGeometry x="-2.5" y="200" width="80" height="20" as="geometry" />
        </mxCell>
        <mxCell id="P2I478FamtUAUtdz1vfe-54" value="" style="edgeStyle=orthogonalEdgeStyle;rounded=0;orthogonalLoop=1;jettySize=auto;html=1;entryX=0.692;entryY=-0.067;entryDx=0;entryDy=0;entryPerimeter=0;" parent="1" source="P2I478FamtUAUtdz1vfe-15" target="P2I478FamtUAUtdz1vfe-2" edge="1">
          <mxGeometry relative="1" as="geometry">
            <mxPoint x="190" y="120" as="targetPoint" />
          </mxGeometry>
        </mxCell>
        <mxCell id="P2I478FamtUAUtdz1vfe-15" value="idUser" style="ellipse;whiteSpace=wrap;html=1;" parent="1" vertex="1">
          <mxGeometry x="170" y="30" width="90" height="30" as="geometry" />
        </mxCell>
        <mxCell id="P2I478FamtUAUtdz1vfe-63" value="" style="edgeStyle=orthogonalEdgeStyle;rounded=0;orthogonalLoop=1;jettySize=auto;html=1;" parent="1" source="P2I478FamtUAUtdz1vfe-16" target="P2I478FamtUAUtdz1vfe-20" edge="1">
          <mxGeometry relative="1" as="geometry" />
        </mxCell>
        <mxCell id="P2I478FamtUAUtdz1vfe-16" value="id" style="ellipse;whiteSpace=wrap;html=1;" parent="1" vertex="1">
          <mxGeometry x="-70" y="200" width="45" height="30" as="geometry" />
        </mxCell>
        <mxCell id="P2I478FamtUAUtdz1vfe-53" value="" style="edgeStyle=orthogonalEdgeStyle;rounded=0;orthogonalLoop=1;jettySize=auto;html=1;entryX=0.933;entryY=-0.017;entryDx=0;entryDy=0;entryPerimeter=0;" parent="1" source="P2I478FamtUAUtdz1vfe-17" target="P2I478FamtUAUtdz1vfe-2" edge="1">
          <mxGeometry relative="1" as="geometry" />
        </mxCell>
        <mxCell id="P2I478FamtUAUtdz1vfe-17" value="&lt;u&gt;id&lt;/u&gt;" style="ellipse;whiteSpace=wrap;html=1;" parent="1" vertex="1">
          <mxGeometry x="210" y="60" width="100" height="30" as="geometry" />
        </mxCell>
        <mxCell id="P2I478FamtUAUtdz1vfe-21" value="" style="edgeStyle=orthogonalEdgeStyle;rounded=0;orthogonalLoop=1;jettySize=auto;html=1;" parent="1" source="P2I478FamtUAUtdz1vfe-20" target="P2I478FamtUAUtdz1vfe-3" edge="1">
          <mxGeometry relative="1" as="geometry" />
        </mxCell>
        <mxCell id="P2I478FamtUAUtdz1vfe-20" value="pertenece a" style="rhombus;whiteSpace=wrap;html=1;" parent="1" vertex="1">
          <mxGeometry x="-60" y="250" width="80" height="80" as="geometry" />
        </mxCell>
        <mxCell id="P2I478FamtUAUtdz1vfe-55" value="" style="edgeStyle=orthogonalEdgeStyle;rounded=0;orthogonalLoop=1;jettySize=auto;html=1;" parent="1" source="P2I478FamtUAUtdz1vfe-25" target="P2I478FamtUAUtdz1vfe-2" edge="1">
          <mxGeometry relative="1" as="geometry" />
        </mxCell>
        <mxCell id="P2I478FamtUAUtdz1vfe-25" value="idType" style="ellipse;whiteSpace=wrap;html=1;" parent="1" vertex="1">
          <mxGeometry x="100" y="20" width="90" height="30" as="geometry" />
        </mxCell>
        <mxCell id="P2I478FamtUAUtdz1vfe-56" value="" style="edgeStyle=orthogonalEdgeStyle;rounded=0;orthogonalLoop=1;jettySize=auto;html=1;" parent="1" source="P2I478FamtUAUtdz1vfe-26" target="P2I478FamtUAUtdz1vfe-2" edge="1">
          <mxGeometry relative="1" as="geometry">
            <Array as="points">
              <mxPoint x="130" y="60" />
              <mxPoint x="130" y="100" />
              <mxPoint x="147" y="100" />
            </Array>
          </mxGeometry>
        </mxCell>
        <mxCell id="P2I478FamtUAUtdz1vfe-26" value="firstName" style="ellipse;whiteSpace=wrap;html=1;" parent="1" vertex="1">
          <mxGeometry y="40" width="90" height="30" as="geometry" />
        </mxCell>
        <mxCell id="P2I478FamtUAUtdz1vfe-62" value="" style="edgeStyle=orthogonalEdgeStyle;rounded=0;orthogonalLoop=1;jettySize=auto;html=1;entryX=0;entryY=0.25;entryDx=0;entryDy=0;" parent="1" source="P2I478FamtUAUtdz1vfe-27" target="P2I478FamtUAUtdz1vfe-2" edge="1">
          <mxGeometry relative="1" as="geometry">
            <Array as="points">
              <mxPoint x="110" y="85" />
              <mxPoint x="110" y="135" />
            </Array>
          </mxGeometry>
        </mxCell>
        <mxCell id="P2I478FamtUAUtdz1vfe-27" value="secondName" style="ellipse;whiteSpace=wrap;html=1;" parent="1" vertex="1">
          <mxGeometry x="-5" y="70" width="90" height="30" as="geometry" />
        </mxCell>
        <mxCell id="P2I478FamtUAUtdz1vfe-61" value="" style="edgeStyle=orthogonalEdgeStyle;rounded=0;orthogonalLoop=1;jettySize=auto;html=1;" parent="1" source="P2I478FamtUAUtdz1vfe-28" target="P2I478FamtUAUtdz1vfe-2" edge="1">
          <mxGeometry relative="1" as="geometry" />
        </mxCell>
        <mxCell id="P2I478FamtUAUtdz1vfe-28" value="phone" style="ellipse;whiteSpace=wrap;html=1;" parent="1" vertex="1">
          <mxGeometry x="-7.5" y="160" width="80" height="30" as="geometry" />
        </mxCell>
        <mxCell id="P2I478FamtUAUtdz1vfe-52" value="" style="edgeStyle=orthogonalEdgeStyle;rounded=0;orthogonalLoop=1;jettySize=auto;html=1;" parent="1" source="P2I478FamtUAUtdz1vfe-36" target="P2I478FamtUAUtdz1vfe-4" edge="1">
          <mxGeometry relative="1" as="geometry" />
        </mxCell>
        <mxCell id="P2I478FamtUAUtdz1vfe-36" value="&lt;u&gt;producto_id&lt;/u&gt;" style="ellipse;whiteSpace=wrap;html=1;" parent="1" vertex="1">
          <mxGeometry x="370" y="370" width="100" height="30" as="geometry" />
        </mxCell>
        <mxCell id="P2I478FamtUAUtdz1vfe-49" value="" style="edgeStyle=orthogonalEdgeStyle;rounded=0;orthogonalLoop=1;jettySize=auto;html=1;entryX=-0.017;entryY=0.867;entryDx=0;entryDy=0;entryPerimeter=0;" parent="1" source="P2I478FamtUAUtdz1vfe-37" target="P2I478FamtUAUtdz1vfe-4" edge="1">
          <mxGeometry relative="1" as="geometry" />
        </mxCell>
        <mxCell id="P2I478FamtUAUtdz1vfe-37" value="precio_base" style="ellipse;whiteSpace=wrap;html=1;" parent="1" vertex="1">
          <mxGeometry x="280" y="480" width="90" height="30" as="geometry" />
        </mxCell>
        <mxCell id="P2I478FamtUAUtdz1vfe-48" value="" style="edgeStyle=orthogonalEdgeStyle;rounded=0;orthogonalLoop=1;jettySize=auto;html=1;" parent="1" source="P2I478FamtUAUtdz1vfe-38" target="P2I478FamtUAUtdz1vfe-4" edge="1">
          <mxGeometry relative="1" as="geometry" />
        </mxCell>
        <mxCell id="P2I478FamtUAUtdz1vfe-38" value="descripcion" style="ellipse;whiteSpace=wrap;html=1;" parent="1" vertex="1">
          <mxGeometry x="280" y="440" width="90" height="30" as="geometry" />
        </mxCell>
        <mxCell id="P2I478FamtUAUtdz1vfe-50" value="" style="edgeStyle=orthogonalEdgeStyle;rounded=0;orthogonalLoop=1;jettySize=auto;html=1;entryX=0;entryY=0;entryDx=0;entryDy=0;" parent="1" source="P2I478FamtUAUtdz1vfe-39" target="P2I478FamtUAUtdz1vfe-4" edge="1">
          <mxGeometry relative="1" as="geometry" />
        </mxCell>
        <mxCell id="P2I478FamtUAUtdz1vfe-39" value="nombre" style="ellipse;whiteSpace=wrap;html=1;" parent="1" vertex="1">
          <mxGeometry x="280" y="400" width="90" height="30" as="geometry" />
        </mxCell>
        <mxCell id="qZTf007Mv5Fw0Ax3Y-SA-14" value="" style="edgeStyle=orthogonalEdgeStyle;rounded=0;orthogonalLoop=1;jettySize=auto;html=1;" edge="1" parent="1" source="P2I478FamtUAUtdz1vfe-66" target="P2I478FamtUAUtdz1vfe-5">
          <mxGeometry relative="1" as="geometry" />
        </mxCell>
        <mxCell id="P2I478FamtUAUtdz1vfe-66" value="&lt;u&gt;id&lt;/u&gt;" style="ellipse;whiteSpace=wrap;html=1;" parent="1" vertex="1">
          <mxGeometry x="310" y="70" width="40" height="30" as="geometry" />
        </mxCell>
        <mxCell id="P2I478FamtUAUtdz1vfe-76" style="edgeStyle=orthogonalEdgeStyle;rounded=0;orthogonalLoop=1;jettySize=auto;html=1;entryX=1;entryY=0.5;entryDx=0;entryDy=0;" parent="1" source="P2I478FamtUAUtdz1vfe-68" target="P2I478FamtUAUtdz1vfe-2" edge="1">
          <mxGeometry relative="1" as="geometry">
            <mxPoint x="310" y="150" as="targetPoint" />
          </mxGeometry>
        </mxCell>
        <mxCell id="P2I478FamtUAUtdz1vfe-68" value="conecta" style="rhombus;whiteSpace=wrap;html=1;" parent="1" vertex="1">
          <mxGeometry x="260" y="110" width="50" height="40" as="geometry" />
        </mxCell>
        <mxCell id="P2I478FamtUAUtdz1vfe-73" value="" style="edgeStyle=orthogonalEdgeStyle;rounded=0;orthogonalLoop=1;jettySize=auto;html=1;entryX=0.5;entryY=0;entryDx=0;entryDy=0;" parent="1" source="P2I478FamtUAUtdz1vfe-70" target="P2I478FamtUAUtdz1vfe-68" edge="1">
          <mxGeometry relative="1" as="geometry" />
        </mxCell>
        <mxCell id="P2I478FamtUAUtdz1vfe-70" value="idUser" style="ellipse;whiteSpace=wrap;html=1;" parent="1" vertex="1">
          <mxGeometry x="280" y="30" width="46" height="20" as="geometry" />
        </mxCell>
        <mxCell id="qZTf007Mv5Fw0Ax3Y-SA-10" value="" style="edgeStyle=orthogonalEdgeStyle;rounded=0;orthogonalLoop=1;jettySize=auto;html=1;" edge="1" parent="1" source="P2I478FamtUAUtdz1vfe-71" target="P2I478FamtUAUtdz1vfe-5">
          <mxGeometry relative="1" as="geometry" />
        </mxCell>
        <mxCell id="P2I478FamtUAUtdz1vfe-71" value="&lt;u&gt;userName&lt;/u&gt;" style="ellipse;whiteSpace=wrap;html=1;" parent="1" vertex="1">
          <mxGeometry x="324" y="40" width="90" height="25" as="geometry" />
        </mxCell>
        <mxCell id="P2I478FamtUAUtdz1vfe-88" value="" style="edgeStyle=orthogonalEdgeStyle;rounded=0;orthogonalLoop=1;jettySize=auto;html=1;entryX=0.886;entryY=1.075;entryDx=0;entryDy=0;entryPerimeter=0;" parent="1" source="P2I478FamtUAUtdz1vfe-80" edge="1">
          <mxGeometry relative="1" as="geometry">
            <mxPoint x="664.04" y="356" as="targetPoint" />
          </mxGeometry>
        </mxCell>
        <mxCell id="P2I478FamtUAUtdz1vfe-80" value="precio_unitario" style="ellipse;whiteSpace=wrap;html=1;" parent="1" vertex="1">
          <mxGeometry x="720" y="355" width="90" height="36" as="geometry" />
        </mxCell>
        <mxCell id="P2I478FamtUAUtdz1vfe-86" value="" style="edgeStyle=orthogonalEdgeStyle;rounded=0;orthogonalLoop=1;jettySize=auto;html=1;entryX=1;entryY=0.5;entryDx=0;entryDy=0;" parent="1" source="P2I478FamtUAUtdz1vfe-81" edge="1">
          <mxGeometry relative="1" as="geometry">
            <mxPoint x="680" y="333" as="targetPoint" />
          </mxGeometry>
        </mxCell>
        <mxCell id="P2I478FamtUAUtdz1vfe-81" value="cantidad" style="ellipse;whiteSpace=wrap;html=1;" parent="1" vertex="1">
          <mxGeometry x="720" y="323" width="90" height="30" as="geometry" />
        </mxCell>
        <mxCell id="P2I478FamtUAUtdz1vfe-85" value="" style="edgeStyle=orthogonalEdgeStyle;rounded=0;orthogonalLoop=1;jettySize=auto;html=1;entryX=0.907;entryY=0;entryDx=0;entryDy=0;entryPerimeter=0;exitX=0;exitY=0.267;exitDx=0;exitDy=0;exitPerimeter=0;" parent="1" source="P2I478FamtUAUtdz1vfe-82" edge="1">
          <mxGeometry relative="1" as="geometry">
            <mxPoint x="720" y="268" as="sourcePoint" />
            <mxPoint x="666.98" y="313" as="targetPoint" />
          </mxGeometry>
        </mxCell>
        <mxCell id="P2I478FamtUAUtdz1vfe-82" value="&lt;u&gt;detalle_id &lt;/u&gt;" style="ellipse;whiteSpace=wrap;html=1;" parent="1" vertex="1">
          <mxGeometry x="719" y="285" width="90" height="30" as="geometry" />
        </mxCell>
        <mxCell id="P2I478FamtUAUtdz1vfe-89" value="" style="edgeStyle=orthogonalEdgeStyle;rounded=0;orthogonalLoop=1;jettySize=auto;html=1;entryX=0.75;entryY=1;entryDx=0;entryDy=0;" parent="1" source="P2I478FamtUAUtdz1vfe-83" edge="1">
          <mxGeometry relative="1" as="geometry">
            <mxPoint x="645" y="353" as="targetPoint" />
          </mxGeometry>
        </mxCell>
        <mxCell id="P2I478FamtUAUtdz1vfe-83" value="Precio_total" style="ellipse;whiteSpace=wrap;html=1;align=center;dashed=1;" parent="1" vertex="1">
          <mxGeometry x="714" y="395" width="100" height="40" as="geometry" />
        </mxCell>
        <mxCell id="qZTf007Mv5Fw0Ax3Y-SA-42" value="" style="edgeStyle=orthogonalEdgeStyle;rounded=0;orthogonalLoop=1;jettySize=auto;html=1;" edge="1" parent="1" source="P2I478FamtUAUtdz1vfe-92" target="qZTf007Mv5Fw0Ax3Y-SA-41">
          <mxGeometry relative="1" as="geometry" />
        </mxCell>
        <mxCell id="P2I478FamtUAUtdz1vfe-92" value="genera" style="rhombus;whiteSpace=wrap;html=1;" parent="1" vertex="1">
          <mxGeometry x="340" y="160" width="80" height="80" as="geometry" />
        </mxCell>
        <mxCell id="P2I478FamtUAUtdz1vfe-105" value="" style="edgeStyle=orthogonalEdgeStyle;rounded=0;orthogonalLoop=1;jettySize=auto;html=1;" parent="1" source="P2I478FamtUAUtdz1vfe-93" edge="1">
          <mxGeometry relative="1" as="geometry">
            <mxPoint x="610" y="353" as="targetPoint" />
          </mxGeometry>
        </mxCell>
        <mxCell id="P2I478FamtUAUtdz1vfe-93" value="tiene" style="rhombus;whiteSpace=wrap;html=1;" parent="1" vertex="1">
          <mxGeometry x="570" y="430" width="80" height="80" as="geometry" />
        </mxCell>
        <mxCell id="P2I478FamtUAUtdz1vfe-100" value="" style="edgeStyle=orthogonalEdgeStyle;rounded=0;orthogonalLoop=1;jettySize=auto;html=1;" parent="1" source="P2I478FamtUAUtdz1vfe-98" target="P2I478FamtUAUtdz1vfe-93" edge="1">
          <mxGeometry relative="1" as="geometry" />
        </mxCell>
        <mxCell id="P2I478FamtUAUtdz1vfe-98" value="producto_id " style="ellipse;whiteSpace=wrap;html=1;" parent="1" vertex="1">
          <mxGeometry x="680" y="455" width="90" height="30" as="geometry" />
        </mxCell>
        <mxCell id="P2I478FamtUAUtdz1vfe-102" value="" style="edgeStyle=orthogonalEdgeStyle;rounded=0;orthogonalLoop=1;jettySize=auto;html=1;" parent="1" source="P2I478FamtUAUtdz1vfe-101" target="P2I478FamtUAUtdz1vfe-92" edge="1">
          <mxGeometry relative="1" as="geometry" />
        </mxCell>
        <mxCell id="P2I478FamtUAUtdz1vfe-101" value="idSupplier" style="ellipse;whiteSpace=wrap;html=1;" parent="1" vertex="1">
          <mxGeometry x="450" y="120" width="90" height="30" as="geometry" />
        </mxCell>
        <mxCell id="qZTf007Mv5Fw0Ax3Y-SA-30" value="" style="edgeStyle=orthogonalEdgeStyle;rounded=0;orthogonalLoop=1;jettySize=auto;html=1;entryX=1;entryY=0.25;entryDx=0;entryDy=0;" edge="1" parent="1" source="qZTf007Mv5Fw0Ax3Y-SA-1" target="P2I478FamtUAUtdz1vfe-5">
          <mxGeometry relative="1" as="geometry" />
        </mxCell>
        <mxCell id="qZTf007Mv5Fw0Ax3Y-SA-1" value="usersRoles" style="rounded=0;whiteSpace=wrap;html=1;" vertex="1" parent="1">
          <mxGeometry x="450" y="85" width="70" height="20" as="geometry" />
        </mxCell>
        <mxCell id="qZTf007Mv5Fw0Ax3Y-SA-3" value="" style="edgeStyle=orthogonalEdgeStyle;rounded=0;orthogonalLoop=1;jettySize=auto;html=1;entryX=0.325;entryY=0.017;entryDx=0;entryDy=0;entryPerimeter=0;" edge="1" parent="1" source="qZTf007Mv5Fw0Ax3Y-SA-2" target="P2I478FamtUAUtdz1vfe-2">
          <mxGeometry relative="1" as="geometry">
            <Array as="points">
              <mxPoint x="169" y="25" />
            </Array>
          </mxGeometry>
        </mxCell>
        <mxCell id="qZTf007Mv5Fw0Ax3Y-SA-2" value="identificationNumber" style="ellipse;whiteSpace=wrap;html=1;" vertex="1" parent="1">
          <mxGeometry x="-17.5" width="115" height="40" as="geometry" />
        </mxCell>
        <mxCell id="qZTf007Mv5Fw0Ax3Y-SA-8" value="" style="edgeStyle=orthogonalEdgeStyle;rounded=0;orthogonalLoop=1;jettySize=auto;html=1;" edge="1" parent="1" source="qZTf007Mv5Fw0Ax3Y-SA-4" target="P2I478FamtUAUtdz1vfe-2">
          <mxGeometry relative="1" as="geometry" />
        </mxCell>
        <mxCell id="qZTf007Mv5Fw0Ax3Y-SA-4" value="lastName1" style="ellipse;whiteSpace=wrap;html=1;" vertex="1" parent="1">
          <mxGeometry x="-2.5" y="100" width="90" height="30" as="geometry" />
        </mxCell>
        <mxCell id="qZTf007Mv5Fw0Ax3Y-SA-7" value="" style="edgeStyle=orthogonalEdgeStyle;rounded=0;orthogonalLoop=1;jettySize=auto;html=1;" edge="1" parent="1" source="qZTf007Mv5Fw0Ax3Y-SA-5" target="P2I478FamtUAUtdz1vfe-2">
          <mxGeometry relative="1" as="geometry" />
        </mxCell>
        <mxCell id="qZTf007Mv5Fw0Ax3Y-SA-5" value="lastName2" style="ellipse;whiteSpace=wrap;html=1;" vertex="1" parent="1">
          <mxGeometry x="-7.5" y="130" width="90" height="30" as="geometry" />
        </mxCell>
        <mxCell id="qZTf007Mv5Fw0Ax3Y-SA-12" value="" style="edgeStyle=orthogonalEdgeStyle;rounded=0;orthogonalLoop=1;jettySize=auto;html=1;" edge="1" parent="1" source="qZTf007Mv5Fw0Ax3Y-SA-11" target="P2I478FamtUAUtdz1vfe-5">
          <mxGeometry relative="1" as="geometry" />
        </mxCell>
        <mxCell id="qZTf007Mv5Fw0Ax3Y-SA-11" value="&lt;u&gt;password&lt;/u&gt;" style="ellipse;whiteSpace=wrap;html=1;" vertex="1" parent="1">
          <mxGeometry x="364" y="55" width="100" height="30" as="geometry" />
        </mxCell>
        <mxCell id="qZTf007Mv5Fw0Ax3Y-SA-36" value="" style="edgeStyle=orthogonalEdgeStyle;rounded=0;orthogonalLoop=1;jettySize=auto;html=1;entryX=1;entryY=0.5;entryDx=0;entryDy=0;" edge="1" parent="1" source="qZTf007Mv5Fw0Ax3Y-SA-13" target="qZTf007Mv5Fw0Ax3Y-SA-1">
          <mxGeometry relative="1" as="geometry" />
        </mxCell>
        <mxCell id="qZTf007Mv5Fw0Ax3Y-SA-13" value="roles" style="rounded=0;whiteSpace=wrap;html=1;" vertex="1" parent="1">
          <mxGeometry x="640" y="65" width="50" height="40" as="geometry" />
        </mxCell>
        <mxCell id="qZTf007Mv5Fw0Ax3Y-SA-19" value="" style="edgeStyle=orthogonalEdgeStyle;rounded=0;orthogonalLoop=1;jettySize=auto;html=1;" edge="1" parent="1" source="qZTf007Mv5Fw0Ax3Y-SA-25" target="qZTf007Mv5Fw0Ax3Y-SA-1">
          <mxGeometry relative="1" as="geometry" />
        </mxCell>
        <mxCell id="qZTf007Mv5Fw0Ax3Y-SA-35" value="" style="edgeStyle=orthogonalEdgeStyle;rounded=0;orthogonalLoop=1;jettySize=auto;html=1;" edge="1" parent="1" source="qZTf007Mv5Fw0Ax3Y-SA-18">
          <mxGeometry relative="1" as="geometry">
            <mxPoint x="520" y="95" as="targetPoint" />
          </mxGeometry>
        </mxCell>
        <mxCell id="qZTf007Mv5Fw0Ax3Y-SA-18" value="&lt;u&gt;idRole&lt;/u&gt;" style="ellipse;whiteSpace=wrap;html=1;" vertex="1" parent="1">
          <mxGeometry x="490" y="35" width="100" height="30" as="geometry" />
        </mxCell>
        <mxCell id="qZTf007Mv5Fw0Ax3Y-SA-22" value="" style="edgeStyle=orthogonalEdgeStyle;rounded=0;orthogonalLoop=1;jettySize=auto;html=1;" edge="1" parent="1" source="qZTf007Mv5Fw0Ax3Y-SA-21" target="qZTf007Mv5Fw0Ax3Y-SA-1">
          <mxGeometry relative="1" as="geometry" />
        </mxCell>
        <mxCell id="qZTf007Mv5Fw0Ax3Y-SA-21" value="&lt;u&gt;id&lt;/u&gt;" style="ellipse;whiteSpace=wrap;html=1;" vertex="1" parent="1">
          <mxGeometry x="410" y="25" width="40" height="20" as="geometry" />
        </mxCell>
        <mxCell id="qZTf007Mv5Fw0Ax3Y-SA-26" value="" style="edgeStyle=orthogonalEdgeStyle;rounded=0;orthogonalLoop=1;jettySize=auto;html=1;" edge="1" parent="1" source="qZTf007Mv5Fw0Ax3Y-SA-25" target="qZTf007Mv5Fw0Ax3Y-SA-1">
          <mxGeometry relative="1" as="geometry" />
        </mxCell>
        <mxCell id="qZTf007Mv5Fw0Ax3Y-SA-25" value="&lt;u&gt;idUser&lt;/u&gt;" style="ellipse;whiteSpace=wrap;html=1;" vertex="1" parent="1">
          <mxGeometry x="440" y="5" width="100" height="30" as="geometry" />
        </mxCell>
        <mxCell id="qZTf007Mv5Fw0Ax3Y-SA-40" value="" style="edgeStyle=orthogonalEdgeStyle;rounded=0;orthogonalLoop=1;jettySize=auto;html=1;" edge="1" parent="1" source="qZTf007Mv5Fw0Ax3Y-SA-37" target="qZTf007Mv5Fw0Ax3Y-SA-13">
          <mxGeometry relative="1" as="geometry" />
        </mxCell>
        <mxCell id="qZTf007Mv5Fw0Ax3Y-SA-37" value="&lt;u&gt;roleName&lt;/u&gt;" style="ellipse;whiteSpace=wrap;html=1;" vertex="1" parent="1">
          <mxGeometry x="619" y="5" width="100" height="30" as="geometry" />
        </mxCell>
        <mxCell id="qZTf007Mv5Fw0Ax3Y-SA-39" value="" style="edgeStyle=orthogonalEdgeStyle;rounded=0;orthogonalLoop=1;jettySize=auto;html=1;" edge="1" parent="1" source="qZTf007Mv5Fw0Ax3Y-SA-38" target="qZTf007Mv5Fw0Ax3Y-SA-13">
          <mxGeometry relative="1" as="geometry" />
        </mxCell>
        <mxCell id="qZTf007Mv5Fw0Ax3Y-SA-38" value="&lt;u&gt;id&lt;/u&gt;" style="ellipse;whiteSpace=wrap;html=1;" vertex="1" parent="1">
          <mxGeometry x="590" y="30" width="40" height="20" as="geometry" />
        </mxCell>
        <mxCell id="qZTf007Mv5Fw0Ax3Y-SA-41" value="purchaseOrders" style="rounded=0;whiteSpace=wrap;html=1;" vertex="1" parent="1">
          <mxGeometry x="465" y="190" width="105" height="30" as="geometry" />
        </mxCell>
        <mxCell id="qZTf007Mv5Fw0Ax3Y-SA-44" value="" style="edgeStyle=orthogonalEdgeStyle;rounded=0;orthogonalLoop=1;jettySize=auto;html=1;" edge="1" parent="1" source="qZTf007Mv5Fw0Ax3Y-SA-43" target="qZTf007Mv5Fw0Ax3Y-SA-41">
          <mxGeometry relative="1" as="geometry" />
        </mxCell>
        <mxCell id="qZTf007Mv5Fw0Ax3Y-SA-43" value="&lt;u&gt;id&lt;/u&gt;" style="ellipse;whiteSpace=wrap;html=1;" vertex="1" parent="1">
          <mxGeometry x="414" y="150" width="40" height="20" as="geometry" />
        </mxCell>
        <mxCell id="qZTf007Mv5Fw0Ax3Y-SA-55" value="" style="edgeStyle=orthogonalEdgeStyle;rounded=0;orthogonalLoop=1;jettySize=auto;html=1;entryX=0.088;entryY=0.5;entryDx=0;entryDy=0;entryPerimeter=0;" edge="1" parent="1" source="qZTf007Mv5Fw0Ax3Y-SA-45" target="P2I478FamtUAUtdz1vfe-92">
          <mxGeometry relative="1" as="geometry" />
        </mxCell>
        <mxCell id="qZTf007Mv5Fw0Ax3Y-SA-45" value="&lt;u&gt;idOrderStatus&lt;/u&gt;" style="ellipse;whiteSpace=wrap;html=1;" vertex="1" parent="1">
          <mxGeometry x="234" y="155" width="90" height="40" as="geometry" />
        </mxCell>
        <mxCell id="qZTf007Mv5Fw0Ax3Y-SA-52" value="" style="edgeStyle=orthogonalEdgeStyle;rounded=0;orthogonalLoop=1;jettySize=auto;html=1;entryX=0.362;entryY=1.033;entryDx=0;entryDy=0;entryPerimeter=0;" edge="1" parent="1" source="qZTf007Mv5Fw0Ax3Y-SA-46" target="qZTf007Mv5Fw0Ax3Y-SA-41">
          <mxGeometry relative="1" as="geometry" />
        </mxCell>
        <mxCell id="qZTf007Mv5Fw0Ax3Y-SA-46" value="&lt;u&gt;orderDate&lt;/u&gt;" style="ellipse;whiteSpace=wrap;html=1;" vertex="1" parent="1">
          <mxGeometry x="610" y="125" width="80" height="40" as="geometry" />
        </mxCell>
        <mxCell id="qZTf007Mv5Fw0Ax3Y-SA-49" value="" style="edgeStyle=orthogonalEdgeStyle;rounded=0;orthogonalLoop=1;jettySize=auto;html=1;" edge="1" parent="1" source="qZTf007Mv5Fw0Ax3Y-SA-47" target="qZTf007Mv5Fw0Ax3Y-SA-41">
          <mxGeometry relative="1" as="geometry" />
        </mxCell>
        <mxCell id="qZTf007Mv5Fw0Ax3Y-SA-47" value="&lt;u&gt;idSupplier&lt;/u&gt;" style="ellipse;whiteSpace=wrap;html=1;" vertex="1" parent="1">
          <mxGeometry x="534" y="140" width="76" height="20" as="geometry" />
        </mxCell>
        <mxCell id="qZTf007Mv5Fw0Ax3Y-SA-54" value="" style="edgeStyle=orthogonalEdgeStyle;rounded=0;orthogonalLoop=1;jettySize=auto;html=1;entryX=0.75;entryY=0;entryDx=0;entryDy=0;" edge="1" parent="1" source="qZTf007Mv5Fw0Ax3Y-SA-53" target="qZTf007Mv5Fw0Ax3Y-SA-41">
          <mxGeometry relative="1" as="geometry" />
        </mxCell>
        <mxCell id="qZTf007Mv5Fw0Ax3Y-SA-53" value="&lt;u&gt;idOrderStatus&lt;/u&gt;" style="ellipse;whiteSpace=wrap;html=1;" vertex="1" parent="1">
          <mxGeometry x="540" y="95" width="90" height="40" as="geometry" />
        </mxCell>
        <mxCell id="qZTf007Mv5Fw0Ax3Y-SA-68" value="" style="edgeStyle=orthogonalEdgeStyle;rounded=0;orthogonalLoop=1;jettySize=auto;html=1;" edge="1" parent="1" source="qZTf007Mv5Fw0Ax3Y-SA-56" target="qZTf007Mv5Fw0Ax3Y-SA-63">
          <mxGeometry relative="1" as="geometry" />
        </mxCell>
        <mxCell id="qZTf007Mv5Fw0Ax3Y-SA-56" value="addresses" style="rounded=0;whiteSpace=wrap;html=1;" vertex="1" parent="1">
          <mxGeometry x="-155" y="110" width="70" height="22.5" as="geometry" />
        </mxCell>
        <mxCell id="qZTf007Mv5Fw0Ax3Y-SA-57" value="" style="edgeStyle=orthogonalEdgeStyle;rounded=0;orthogonalLoop=1;jettySize=auto;html=1;" edge="1" parent="1" source="qZTf007Mv5Fw0Ax3Y-SA-58" target="qZTf007Mv5Fw0Ax3Y-SA-56">
          <mxGeometry relative="1" as="geometry" />
        </mxCell>
        <mxCell id="qZTf007Mv5Fw0Ax3Y-SA-58" value="&lt;u&gt;id&lt;/u&gt;" style="ellipse;whiteSpace=wrap;html=1;" vertex="1" parent="1">
          <mxGeometry x="-110" y="152.5" width="50" height="30" as="geometry" />
        </mxCell>
        <mxCell id="qZTf007Mv5Fw0Ax3Y-SA-59" value="" style="edgeStyle=orthogonalEdgeStyle;rounded=0;orthogonalLoop=1;jettySize=auto;html=1;" edge="1" parent="1" source="qZTf007Mv5Fw0Ax3Y-SA-60" target="qZTf007Mv5Fw0Ax3Y-SA-56">
          <mxGeometry relative="1" as="geometry" />
        </mxCell>
        <mxCell id="qZTf007Mv5Fw0Ax3Y-SA-60" value="street" style="ellipse;whiteSpace=wrap;html=1;" vertex="1" parent="1">
          <mxGeometry x="-230" y="150" width="70" height="20" as="geometry" />
        </mxCell>
        <mxCell id="qZTf007Mv5Fw0Ax3Y-SA-61" value="" style="edgeStyle=orthogonalEdgeStyle;rounded=0;orthogonalLoop=1;jettySize=auto;html=1;exitX=0;exitY=0.75;exitDx=0;exitDy=0;" edge="1" parent="1" target="qZTf007Mv5Fw0Ax3Y-SA-63" source="P2I478FamtUAUtdz1vfe-2">
          <mxGeometry relative="1" as="geometry">
            <mxPoint x="-147" y="-12.5" as="sourcePoint" />
            <Array as="points">
              <mxPoint x="130" />
              <mxPoint x="-120" />
            </Array>
          </mxGeometry>
        </mxCell>
        <mxCell id="qZTf007Mv5Fw0Ax3Y-SA-62" value="" style="edgeStyle=orthogonalEdgeStyle;rounded=0;orthogonalLoop=1;jettySize=auto;html=1;" edge="1" parent="1" source="qZTf007Mv5Fw0Ax3Y-SA-63" target="qZTf007Mv5Fw0Ax3Y-SA-56">
          <mxGeometry relative="1" as="geometry" />
        </mxCell>
        <mxCell id="qZTf007Mv5Fw0Ax3Y-SA-63" value="pertenece a" style="rhombus;whiteSpace=wrap;html=1;" vertex="1" parent="1">
          <mxGeometry x="-160" y="7.5" width="80" height="80" as="geometry" />
        </mxCell>
        <mxCell id="qZTf007Mv5Fw0Ax3Y-SA-67" value="" style="edgeStyle=orthogonalEdgeStyle;rounded=0;orthogonalLoop=1;jettySize=auto;html=1;entryX=0.25;entryY=1;entryDx=0;entryDy=0;" edge="1" parent="1" source="qZTf007Mv5Fw0Ax3Y-SA-64" target="qZTf007Mv5Fw0Ax3Y-SA-56">
          <mxGeometry relative="1" as="geometry" />
        </mxCell>
        <mxCell id="qZTf007Mv5Fw0Ax3Y-SA-64" value="city" style="ellipse;whiteSpace=wrap;html=1;" vertex="1" parent="1">
          <mxGeometry x="-245" y="120" width="70" height="20" as="geometry" />
        </mxCell>
        <mxCell id="qZTf007Mv5Fw0Ax3Y-SA-66" value="" style="edgeStyle=orthogonalEdgeStyle;rounded=0;orthogonalLoop=1;jettySize=auto;html=1;entryX=0.143;entryY=0.089;entryDx=0;entryDy=0;entryPerimeter=0;" edge="1" parent="1" source="qZTf007Mv5Fw0Ax3Y-SA-65" target="qZTf007Mv5Fw0Ax3Y-SA-56">
          <mxGeometry relative="1" as="geometry" />
        </mxCell>
        <mxCell id="qZTf007Mv5Fw0Ax3Y-SA-65" value="state" style="ellipse;whiteSpace=wrap;html=1;" vertex="1" parent="1">
          <mxGeometry x="-250" y="85" width="70" height="20" as="geometry" />
        </mxCell>
        <mxCell id="qZTf007Mv5Fw0Ax3Y-SA-70" value="" style="edgeStyle=orthogonalEdgeStyle;rounded=0;orthogonalLoop=1;jettySize=auto;html=1;entryX=0.25;entryY=1;entryDx=0;entryDy=0;" edge="1" parent="1" source="qZTf007Mv5Fw0Ax3Y-SA-69" target="qZTf007Mv5Fw0Ax3Y-SA-56">
          <mxGeometry relative="1" as="geometry" />
        </mxCell>
        <mxCell id="qZTf007Mv5Fw0Ax3Y-SA-69" value="zipCode" style="ellipse;whiteSpace=wrap;html=1;" vertex="1" parent="1">
          <mxGeometry x="-210" y="190" width="70" height="20" as="geometry" />
        </mxCell>
        <mxCell id="qZTf007Mv5Fw0Ax3Y-SA-79" value="idSupplier" style="ellipse;whiteSpace=wrap;html=1;" vertex="1" parent="1">
          <mxGeometry x="332" y="250" width="90" height="30" as="geometry" />
        </mxCell>
        <mxCell id="qZTf007Mv5Fw0Ax3Y-SA-91" value="" style="edgeStyle=orthogonalEdgeStyle;rounded=0;orthogonalLoop=1;jettySize=auto;html=1;entryX=0.525;entryY=0.925;entryDx=0;entryDy=0;entryPerimeter=0;" edge="1" parent="1" source="qZTf007Mv5Fw0Ax3Y-SA-80" target="P2I478FamtUAUtdz1vfe-92">
          <mxGeometry relative="1" as="geometry" />
        </mxCell>
        <mxCell id="qZTf007Mv5Fw0Ax3Y-SA-80" value="purchaseOrders" style="rounded=0;whiteSpace=wrap;html=1;" vertex="1" parent="1">
          <mxGeometry x="347" y="320" width="105" height="30" as="geometry" />
        </mxCell>
        <mxCell id="qZTf007Mv5Fw0Ax3Y-SA-81" value="" style="edgeStyle=orthogonalEdgeStyle;rounded=0;orthogonalLoop=1;jettySize=auto;html=1;" edge="1" parent="1" source="qZTf007Mv5Fw0Ax3Y-SA-82" target="qZTf007Mv5Fw0Ax3Y-SA-80">
          <mxGeometry relative="1" as="geometry" />
        </mxCell>
        <mxCell id="qZTf007Mv5Fw0Ax3Y-SA-82" value="&lt;u&gt;id&lt;/u&gt;" style="ellipse;whiteSpace=wrap;html=1;" vertex="1" parent="1">
          <mxGeometry x="296" y="280" width="40" height="20" as="geometry" />
        </mxCell>
        <mxCell id="qZTf007Mv5Fw0Ax3Y-SA-83" value="" style="edgeStyle=orthogonalEdgeStyle;rounded=0;orthogonalLoop=1;jettySize=auto;html=1;entryX=0.362;entryY=1.033;entryDx=0;entryDy=0;entryPerimeter=0;" edge="1" parent="1" source="qZTf007Mv5Fw0Ax3Y-SA-84" target="qZTf007Mv5Fw0Ax3Y-SA-80">
          <mxGeometry relative="1" as="geometry" />
        </mxCell>
        <mxCell id="qZTf007Mv5Fw0Ax3Y-SA-84" value="&lt;u&gt;orderDate&lt;/u&gt;" style="ellipse;whiteSpace=wrap;html=1;" vertex="1" parent="1">
          <mxGeometry x="492" y="255" width="80" height="40" as="geometry" />
        </mxCell>
        <mxCell id="qZTf007Mv5Fw0Ax3Y-SA-85" value="" style="edgeStyle=orthogonalEdgeStyle;rounded=0;orthogonalLoop=1;jettySize=auto;html=1;" edge="1" parent="1" source="qZTf007Mv5Fw0Ax3Y-SA-86" target="qZTf007Mv5Fw0Ax3Y-SA-80">
          <mxGeometry relative="1" as="geometry" />
        </mxCell>
        <mxCell id="qZTf007Mv5Fw0Ax3Y-SA-86" value="&lt;u&gt;idSupplier&lt;/u&gt;" style="ellipse;whiteSpace=wrap;html=1;" vertex="1" parent="1">
          <mxGeometry x="416" y="270" width="76" height="20" as="geometry" />
        </mxCell>
        <mxCell id="qZTf007Mv5Fw0Ax3Y-SA-87" value="" style="edgeStyle=orthogonalEdgeStyle;rounded=0;orthogonalLoop=1;jettySize=auto;html=1;entryX=0.75;entryY=0;entryDx=0;entryDy=0;" edge="1" parent="1" source="qZTf007Mv5Fw0Ax3Y-SA-88" target="qZTf007Mv5Fw0Ax3Y-SA-80">
          <mxGeometry relative="1" as="geometry" />
        </mxCell>
        <mxCell id="qZTf007Mv5Fw0Ax3Y-SA-88" value="&lt;u&gt;idOrderStatus&lt;/u&gt;" style="ellipse;whiteSpace=wrap;html=1;" vertex="1" parent="1">
          <mxGeometry x="422" y="225" width="90" height="40" as="geometry" />
        </mxCell>
      </root>
    </mxGraphModel>
  </diagram>
</mxfile>
